<mxfile host="475a3485-130c-4c96-973a-7ffdafec846d" modified="2021-01-27T03:29:14.539Z" agent="5.0 (Windows NT 6.1; Win64; x64) AppleWebKit/537.36 (KHTML, like Gecko) Code/1.51.1 Chrome/83.0.4103.122 Electron/9.3.3 Safari/537.36" etag="gZhRACWp27_wvNBZ9LJW" version="13.10.0" type="embed"><diagram id="6hGFLwfOUW9BJ-s0fimq" name="Page-1"><mxGraphModel dx="1322" dy="910" grid="1" gridSize="10" guides="1" tooltips="1" connect="1" arrows="1" fold="1" page="1" pageScale="1" pageWidth="827" pageHeight="1169" math="0" shadow="0"><root><mxCell id="0"/><mxCell id="1" parent="0"/><mxCell id="4" value="前端" style="shape=ext;double=1;rounded=1;whiteSpace=wrap;html=1;" parent="1" vertex="1"><mxGeometry x="140" y="210" width="120" height="80" as="geometry"/></mxCell><mxCell id="5" value="AS" style="shape=ext;double=1;rounded=1;whiteSpace=wrap;html=1;" parent="1" vertex="1"><mxGeometry x="310" y="210" width="120" height="80" as="geometry"/></mxCell><mxCell id="6" value="Redis" style="shape=ext;double=1;rounded=1;whiteSpace=wrap;html=1;" parent="1" vertex="1"><mxGeometry x="490" y="210" width="120" height="80" as="geometry"/></mxCell><mxCell id="7" value="MySql" style="shape=ext;double=1;rounded=1;whiteSpace=wrap;html=1;" parent="1" vertex="1"><mxGeometry x="670" y="210" width="120" height="80" as="geometry"/></mxCell><mxCell id="22" value="" style="edgeStyle=orthogonalEdgeStyle;rounded=0;orthogonalLoop=1;jettySize=auto;html=1;" parent="1" source="9" target="21" edge="1"><mxGeometry relative="1" as="geometry"/></mxCell><mxCell id="9" value="登陆/注册" style="rounded=0;whiteSpace=wrap;html=1;" parent="1" vertex="1"><mxGeometry x="160" y="320" width="80" height="40" as="geometry"/></mxCell><mxCell id="21" value="登陆/注册" style="rounded=0;whiteSpace=wrap;html=1;" parent="1" vertex="1"><mxGeometry x="320" y="320" width="80" height="40" as="geometry"/></mxCell><mxCell id="29" style="edgeStyle=orthogonalEdgeStyle;rounded=0;orthogonalLoop=1;jettySize=auto;html=1;exitX=1;exitY=0.5;exitDx=0;exitDy=0;entryX=0;entryY=0.5;entryDx=0;entryDy=0;" parent="1" source="10" target="11" edge="1"><mxGeometry relative="1" as="geometry"/></mxCell><mxCell id="10" value="验证登录" style="rounded=0;whiteSpace=wrap;html=1;" parent="1" vertex="1"><mxGeometry x="320" y="320" width="90" height="40" as="geometry"/></mxCell><mxCell id="32" value="3.返回验证结果" style="edgeStyle=orthogonalEdgeStyle;rounded=0;orthogonalLoop=1;jettySize=auto;html=1;entryX=1;entryY=0.5;entryDx=0;entryDy=0;" parent="1" source="11" target="19" edge="1"><mxGeometry relative="1" as="geometry"><Array as="points"><mxPoint x="750" y="520"/></Array></mxGeometry></mxCell><mxCell id="11" value="验证P/W" style="rounded=0;whiteSpace=wrap;html=1;" parent="1" vertex="1"><mxGeometry x="700" y="320" width="80" height="40" as="geometry"/></mxCell><mxCell id="12" value="返回token" style="rounded=0;whiteSpace=wrap;html=1;" parent="1" vertex="1"><mxGeometry x="160" y="405" width="80" height="40" as="geometry"/></mxCell><mxCell id="13" value="登陆失败" style="rounded=0;whiteSpace=wrap;html=1;" parent="1" vertex="1"><mxGeometry x="160" y="610" width="80" height="40" as="geometry"/></mxCell><mxCell id="36" value="4.2" style="edgeStyle=orthogonalEdgeStyle;rounded=0;orthogonalLoop=1;jettySize=auto;html=1;exitX=1;exitY=0.5;exitDx=0;exitDy=0;entryX=0;entryY=0.5;entryDx=0;entryDy=0;" parent="1" source="14" target="17" edge="1"><mxGeometry relative="1" as="geometry"/></mxCell><mxCell id="37" value="4.1" style="edgeStyle=orthogonalEdgeStyle;rounded=0;orthogonalLoop=1;jettySize=auto;html=1;entryX=1;entryY=0.5;entryDx=0;entryDy=0;" parent="1" source="14" target="12" edge="1"><mxGeometry relative="1" as="geometry"/></mxCell><mxCell id="14" value="成功" style="rounded=0;whiteSpace=wrap;html=1;" parent="1" vertex="1"><mxGeometry x="330" y="410" width="70" height="30" as="geometry"/></mxCell><mxCell id="42" value="5.验证失败" style="edgeStyle=orthogonalEdgeStyle;rounded=0;orthogonalLoop=1;jettySize=auto;html=1;exitX=0;exitY=0.5;exitDx=0;exitDy=0;entryX=1;entryY=0.5;entryDx=0;entryDy=0;" parent="1" source="16" target="13" edge="1"><mxGeometry relative="1" as="geometry"/></mxCell><mxCell id="16" value="失败" style="rounded=0;whiteSpace=wrap;html=1;" parent="1" vertex="1"><mxGeometry x="325" y="610" width="80" height="40" as="geometry"/></mxCell><mxCell id="17" value="存入Redis" style="rounded=0;whiteSpace=wrap;html=1;" parent="1" vertex="1"><mxGeometry x="520" y="405" width="80" height="40" as="geometry"/></mxCell><mxCell id="39" style="edgeStyle=orthogonalEdgeStyle;rounded=0;orthogonalLoop=1;jettySize=auto;html=1;exitX=0.5;exitY=0;exitDx=0;exitDy=0;entryX=0.5;entryY=1;entryDx=0;entryDy=0;" parent="1" source="19" target="14" edge="1"><mxGeometry relative="1" as="geometry"/></mxCell><mxCell id="41" style="edgeStyle=orthogonalEdgeStyle;rounded=0;orthogonalLoop=1;jettySize=auto;html=1;entryX=0.5;entryY=0;entryDx=0;entryDy=0;" parent="1" source="19" target="16" edge="1"><mxGeometry relative="1" as="geometry"/></mxCell><mxCell id="19" value="是否成功" style="rhombus;whiteSpace=wrap;html=1;" parent="1" vertex="1"><mxGeometry x="325" y="480" width="80" height="80" as="geometry"/></mxCell><mxCell id="26" value="1.信息" style="text;html=1;align=center;verticalAlign=middle;resizable=0;points=[];autosize=1;" parent="1" vertex="1"><mxGeometry x="255" y="320" width="50" height="20" as="geometry"/></mxCell><mxCell id="30" value="2.到DB验证" style="text;html=1;align=center;verticalAlign=middle;resizable=0;points=[];autosize=1;" parent="1" vertex="1"><mxGeometry x="510" y="320" width="80" height="20" as="geometry"/></mxCell></root></mxGraphModel></diagram></mxfile>